{
	"asset":{
		"generator":"Khronos glTF Blender I/O v4.5.49",
		"version":"2.0"
	},
	"extensionsUsed":[
		"KHR_materials_specular"
	],
	"scene":0,
	"scenes":[
		{
			"name":"Scene",
			"nodes":[
				0
			]
		}
	],
	"nodes":[
		{
			"mesh":0,
			"name":"model",
			"translation":[
				0,
				76.96125793457031,
				0
			]
		}
	],
	"materials":[
		{
			"doubleSided":true,
			"extensions":{
				"KHR_materials_specular":{
					"specularFactor":0
				}
			},
			"name":"no_change",
			"pbrMetallicRoughness":{
				"baseColorTexture":{
					"index":0
				},
				"metallicFactor":0
			}
		}
	],
	"meshes":[
		{
			"name":"model",
			"primitives":[
				{
					"attributes":{
						"POSITION":0,
						"NORMAL":1,
						"TEXCOORD_0":2,
						"COLOR_0":3,
						"COLOR_1":4
					},
					"indices":5,
					"material":0
				}
			]
		}
	],
	"textures":[
		{
			"sampler":0,
			"source":0
		}
	],
	"images":[
		{
			"mimeType":"image/jpeg",
			"name":"no_change",
			"uri":"no_change.jpg"
		}
	],
	"accessors":[
		{
			"bufferView":0,
			"componentType":5126,
			"count":843523,
			"max":[
				708.1795654296875,
				38.64067077636719,
				871.04736328125
			],
			"min":[
				-570.38623046875,
				-5.1425981521606445,
				-900.9915771484375
			],
			"type":"VEC3"
		},
		{
			"bufferView":1,
			"componentType":5126,
			"count":843523,
			"type":"VEC3"
		},
		{
			"bufferView":2,
			"componentType":5126,
			"count":843523,
			"type":"VEC2"
		},
		{
			"bufferView":3,
			"componentType":5121,
			"count":843523,
			"normalized":true,
			"type":"VEC4"
		},
		{
			"bufferView":4,
			"componentType":5123,
			"count":843523,
			"normalized":true,
			"type":"VEC4"
		},
		{
			"bufferView":5,
			"componentType":5125,
			"count":1827168,
			"type":"SCALAR"
		}
	],
	"bufferViews":[
		{
			"buffer":0,
			"byteLength":10122276,
			"byteOffset":0,
			"target":34962
		},
		{
			"buffer":0,
			"byteLength":10122276,
			"byteOffset":10122276,
			"target":34962
		},
		{
			"buffer":0,
			"byteLength":6748184,
			"byteOffset":20244552,
			"target":34962
		},
		{
			"buffer":0,
			"byteLength":3374092,
			"byteOffset":26992736,
			"target":34962
		},
		{
			"buffer":0,
			"byteLength":6748184,
			"byteOffset":30366828,
			"target":34962
		},
		{
			"buffer":0,
			"byteLength":7308672,
			"byteOffset":37115012,
			"target":34963
		}
	],
	"samplers":[
		{
			"magFilter":9729,
			"minFilter":9987
		}
	],
	"buffers":[
		{
			"byteLength":44423684,
			"uri":"model_zeroed.bin"
		}
	]
}
