{
	"asset":{
		"generator":"Khronos glTF Blender I/O v4.5.49",
		"version":"2.0"
	},
	"extensionsUsed":[
		"KHR_materials_specular"
	],
	"scene":0,
	"scenes":[
		{
			"name":"Scene",
			"nodes":[
				0,
				1,
				2,
				3,
				4,
				5,
				6,
				7,
				8
			]
		}
	],
	"nodes":[
		{
			"mesh":0,
			"name":"duzy",
			"translation":[
				7500640,
				42.21623992919922,
				-5792232
			]
		},
		{
			"mesh":1,
			"name":"clip",
			"translation":[
				637008.875,
				0,
				-490844.53125
			]
		},
		{
			"mesh":2,
			"name":"cutout",
			"translation":[
				7500640,
				-124.0776596069336,
				-5792232
			]
		},
		{
			"mesh":3,
			"name":"clip_2178",
			"translation":[
				7500640,
				-114.84700775146484,
				-5792232
			]
		},
		{
			"mesh":4,
			"name":"model",
			"translation":[
				0,
				76.96125793457031,
				0
			]
		},
		{
			"mesh":5,
			"name":"obszary_2178",
			"scale":[
				1,
				5,
				1
			],
			"translation":[
				7500693,
				89.30323791503906,
				-5792196
			]
		},
		{
			"mesh":6,
			"name":"Cube",
			"rotation":[
				1,
				0,
				0,
				4.371138828673793e-08
			],
			"scale":[
				0.699999988079071,
				1.5,
				0.699999988079071
			],
			"translation":[
				7500792,
				85.77496337890625,
				-5792127
			]
		},
		{
			"mesh":7,
			"name":"Cube.002",
			"rotation":[
				0,
				0.15181241929531097,
				0,
				0.9884093403816223
			],
			"translation":[
				7500563.5,
				86.66423797607422,
				-5792130.5
			]
		},
		{
			"mesh":8,
			"name":"Cube.001",
			"rotation":[
				0,
				0.15181241929531097,
				0,
				0.9884093403816223
			],
			"translation":[
				7500563.5,
				86.66423797607422,
				-5792130.5
			]
		}
	],
	"materials":[
		{
			"doubleSided":true,
			"extensions":{
				"KHR_materials_specular":{
					"specularFactor":0
				}
			},
			"name":"no_change",
			"pbrMetallicRoughness":{
				"baseColorTexture":{
					"index":0
				},
				"metallicFactor":0
			}
		}
	],
	"meshes":[
		{
			"name":"duzy",
			"primitives":[
				{
					"attributes":{
						"POSITION":0,
						"NORMAL":1,
						"TEXCOORD_0":2
					},
					"indices":3
				}
			]
		},
		{
			"name":"clip",
			"primitives":[
				{
					"attributes":{
						"POSITION":4,
						"NORMAL":5
					},
					"indices":6
				}
			]
		},
		{
			"name":"clip_2178.005",
			"primitives":[
				{
					"attributes":{
						"POSITION":7,
						"NORMAL":8,
						"TEXCOORD_0":9
					},
					"indices":10
				}
			]
		},
		{
			"name":"clip_2178.002",
			"primitives":[
				{
					"attributes":{
						"POSITION":11,
						"NORMAL":12,
						"TEXCOORD_0":13
					},
					"indices":14
				}
			]
		},
		{
			"name":"model",
			"primitives":[
				{
					"attributes":{
						"POSITION":15,
						"NORMAL":16,
						"TEXCOORD_0":17,
						"COLOR_0":18,
						"COLOR_1":19
					},
					"indices":20,
					"material":0
				}
			]
		},
		{
			"name":"obszary_2178",
			"primitives":[
				{
					"attributes":{
						"POSITION":21,
						"NORMAL":22,
						"TEXCOORD_0":23
					},
					"indices":24
				}
			]
		},
		{
			"name":"Cube.002",
			"primitives":[
				{
					"attributes":{
						"POSITION":25,
						"NORMAL":26,
						"TEXCOORD_0":27
					},
					"indices":28
				}
			]
		},
		{
			"name":"Cube.004",
			"primitives":[
				{
					"attributes":{
						"POSITION":29,
						"NORMAL":30,
						"TEXCOORD_0":31
					},
					"indices":32
				}
			]
		},
		{
			"name":"Cube.007",
			"primitives":[
				{
					"attributes":{
						"POSITION":33,
						"NORMAL":34,
						"TEXCOORD_0":35
					},
					"indices":36
				}
			]
		}
	],
	"textures":[
		{
			"sampler":0,
			"source":0
		}
	],
	"images":[
		{
			"mimeType":"image/jpeg",
			"name":"no_change",
			"uri":"no_change.jpg"
		}
	],
	"accessors":[
		{
			"bufferView":0,
			"componentType":5126,
			"count":5749,
			"max":[
				500.46868896484375,
				40.70696258544922,
				942.2025146484375
			],
			"min":[
				-423.96881103515625,
				-40.706947326660156,
				-788.1099853515625
			],
			"type":"VEC3"
		},
		{
			"bufferView":1,
			"componentType":5126,
			"count":5749,
			"type":"VEC3"
		},
		{
			"bufferView":2,
			"componentType":5126,
			"count":5749,
			"type":"VEC2"
		},
		{
			"bufferView":3,
			"componentType":5123,
			"count":12414,
			"type":"SCALAR"
		},
		{
			"bufferView":4,
			"componentType":5126,
			"count":2444,
			"max":[
				573.5625,
				230.26626586914062,
				1261.34375
			],
			"min":[
				-350.875,
				0,
				-468.96875
			],
			"type":"VEC3"
		},
		{
			"bufferView":5,
			"componentType":5126,
			"count":2444,
			"type":"VEC3"
		},
		{
			"bufferView":6,
			"componentType":5123,
			"count":5268,
			"type":"SCALAR"
		},
		{
			"bufferView":7,
			"componentType":5126,
			"count":3040,
			"max":[
				252.9617156982422,
				260.0080261230469,
				317.462158203125
			],
			"min":[
				-291.03826904296875,
				50.037200927734375,
				-729.537841796875
			],
			"type":"VEC3"
		},
		{
			"bufferView":8,
			"componentType":5126,
			"count":3040,
			"type":"VEC3"
		},
		{
			"bufferView":9,
			"componentType":5126,
			"count":3040,
			"type":"VEC2"
		},
		{
			"bufferView":10,
			"componentType":5123,
			"count":5952,
			"type":"SCALAR"
		},
		{
			"bufferView":11,
			"componentType":5126,
			"count":5148,
			"max":[
				473.96173095703125,
				233.48757934570312,
				932
			],
			"min":[
				-406.53826904296875,
				167.75637817382812,
				-790.537841796875
			],
			"type":"VEC3"
		},
		{
			"bufferView":12,
			"componentType":5126,
			"count":5148,
			"type":"VEC3"
		},
		{
			"bufferView":13,
			"componentType":5126,
			"count":5148,
			"type":"VEC2"
		},
		{
			"bufferView":14,
			"componentType":5123,
			"count":10836,
			"type":"SCALAR"
		},
		{
			"bufferView":15,
			"componentType":5126,
			"count":843523,
			"max":[
				708.1795654296875,
				38.64067077636719,
				871.04736328125
			],
			"min":[
				-570.38623046875,
				-5.1425981521606445,
				-900.9915771484375
			],
			"type":"VEC3"
		},
		{
			"bufferView":16,
			"componentType":5126,
			"count":843523,
			"type":"VEC3"
		},
		{
			"bufferView":17,
			"componentType":5126,
			"count":843523,
			"type":"VEC2"
		},
		{
			"bufferView":18,
			"componentType":5121,
			"count":843523,
			"normalized":true,
			"type":"VEC4"
		},
		{
			"bufferView":19,
			"componentType":5123,
			"count":843523,
			"normalized":true,
			"type":"VEC4"
		},
		{
			"bufferView":20,
			"componentType":5125,
			"count":1827168,
			"type":"SCALAR"
		},
		{
			"bufferView":21,
			"componentType":5126,
			"count":4950,
			"max":[
				642.0930786132812,
				21.910411834716797,
				940.1088256835938
			],
			"min":[
				-585.7730102539062,
				-21.910388946533203,
				-832.7267456054688
			],
			"type":"VEC3"
		},
		{
			"bufferView":22,
			"componentType":5126,
			"count":4950,
			"type":"VEC3"
		},
		{
			"bufferView":23,
			"componentType":5126,
			"count":4950,
			"type":"VEC2"
		},
		{
			"bufferView":24,
			"componentType":5123,
			"count":9732,
			"type":"SCALAR"
		},
		{
			"bufferView":25,
			"componentType":5126,
			"count":24,
			"max":[
				971.4052124023438,
				21.91041374206543,
				1092.2281494140625
			],
			"min":[
				-971.4052124023438,
				-21.91041374206543,
				-1092.2281494140625
			],
			"type":"VEC3"
		},
		{
			"bufferView":26,
			"componentType":5126,
			"count":24,
			"type":"VEC3"
		},
		{
			"bufferView":27,
			"componentType":5126,
			"count":24,
			"type":"VEC2"
		},
		{
			"bufferView":28,
			"componentType":5123,
			"count":36,
			"type":"SCALAR"
		},
		{
			"bufferView":29,
			"componentType":5126,
			"count":66,
			"max":[
				795.75,
				78.7103271484375,
				815.25
			],
			"min":[
				-795.75,
				-78.7103271484375,
				-815.25
			],
			"type":"VEC3"
		},
		{
			"bufferView":30,
			"componentType":5126,
			"count":66,
			"type":"VEC3"
		},
		{
			"bufferView":31,
			"componentType":5126,
			"count":66,
			"type":"VEC2"
		},
		{
			"bufferView":32,
			"componentType":5123,
			"count":108,
			"type":"SCALAR"
		},
		{
			"bufferView":33,
			"componentType":5126,
			"count":4456,
			"max":[
				795.75,
				78.7103271484375,
				815.25
			],
			"min":[
				-795.75,
				-78.7103271484375,
				-815.25
			],
			"type":"VEC3"
		},
		{
			"bufferView":34,
			"componentType":5126,
			"count":4456,
			"type":"VEC3"
		},
		{
			"bufferView":35,
			"componentType":5126,
			"count":4456,
			"type":"VEC2"
		},
		{
			"bufferView":36,
			"componentType":5123,
			"count":9336,
			"type":"SCALAR"
		}
	],
	"bufferViews":[
		{
			"buffer":0,
			"byteLength":68988,
			"byteOffset":0,
			"target":34962
		},
		{
			"buffer":0,
			"byteLength":68988,
			"byteOffset":68988,
			"target":34962
		},
		{
			"buffer":0,
			"byteLength":45992,
			"byteOffset":137976,
			"target":34962
		},
		{
			"buffer":0,
			"byteLength":24828,
			"byteOffset":183968,
			"target":34963
		},
		{
			"buffer":0,
			"byteLength":29328,
			"byteOffset":208796,
			"target":34962
		},
		{
			"buffer":0,
			"byteLength":29328,
			"byteOffset":238124,
			"target":34962
		},
		{
			"buffer":0,
			"byteLength":10536,
			"byteOffset":267452,
			"target":34963
		},
		{
			"buffer":0,
			"byteLength":36480,
			"byteOffset":277988,
			"target":34962
		},
		{
			"buffer":0,
			"byteLength":36480,
			"byteOffset":314468,
			"target":34962
		},
		{
			"buffer":0,
			"byteLength":24320,
			"byteOffset":350948,
			"target":34962
		},
		{
			"buffer":0,
			"byteLength":11904,
			"byteOffset":375268,
			"target":34963
		},
		{
			"buffer":0,
			"byteLength":61776,
			"byteOffset":387172,
			"target":34962
		},
		{
			"buffer":0,
			"byteLength":61776,
			"byteOffset":448948,
			"target":34962
		},
		{
			"buffer":0,
			"byteLength":41184,
			"byteOffset":510724,
			"target":34962
		},
		{
			"buffer":0,
			"byteLength":21672,
			"byteOffset":551908,
			"target":34963
		},
		{
			"buffer":0,
			"byteLength":10122276,
			"byteOffset":573580,
			"target":34962
		},
		{
			"buffer":0,
			"byteLength":10122276,
			"byteOffset":10695856,
			"target":34962
		},
		{
			"buffer":0,
			"byteLength":6748184,
			"byteOffset":20818132,
			"target":34962
		},
		{
			"buffer":0,
			"byteLength":3374092,
			"byteOffset":27566316,
			"target":34962
		},
		{
			"buffer":0,
			"byteLength":6748184,
			"byteOffset":30940408,
			"target":34962
		},
		{
			"buffer":0,
			"byteLength":7308672,
			"byteOffset":37688592,
			"target":34963
		},
		{
			"buffer":0,
			"byteLength":59400,
			"byteOffset":44997264,
			"target":34962
		},
		{
			"buffer":0,
			"byteLength":59400,
			"byteOffset":45056664,
			"target":34962
		},
		{
			"buffer":0,
			"byteLength":39600,
			"byteOffset":45116064,
			"target":34962
		},
		{
			"buffer":0,
			"byteLength":19464,
			"byteOffset":45155664,
			"target":34963
		},
		{
			"buffer":0,
			"byteLength":288,
			"byteOffset":45175128,
			"target":34962
		},
		{
			"buffer":0,
			"byteLength":288,
			"byteOffset":45175416,
			"target":34962
		},
		{
			"buffer":0,
			"byteLength":192,
			"byteOffset":45175704,
			"target":34962
		},
		{
			"buffer":0,
			"byteLength":72,
			"byteOffset":45175896,
			"target":34963
		},
		{
			"buffer":0,
			"byteLength":792,
			"byteOffset":45175968,
			"target":34962
		},
		{
			"buffer":0,
			"byteLength":792,
			"byteOffset":45176760,
			"target":34962
		},
		{
			"buffer":0,
			"byteLength":528,
			"byteOffset":45177552,
			"target":34962
		},
		{
			"buffer":0,
			"byteLength":216,
			"byteOffset":45178080,
			"target":34963
		},
		{
			"buffer":0,
			"byteLength":53472,
			"byteOffset":45178296,
			"target":34962
		},
		{
			"buffer":0,
			"byteLength":53472,
			"byteOffset":45231768,
			"target":34962
		},
		{
			"buffer":0,
			"byteLength":35648,
			"byteOffset":45285240,
			"target":34962
		},
		{
			"buffer":0,
			"byteLength":18672,
			"byteOffset":45320888,
			"target":34963
		}
	],
	"samplers":[
		{
			"magFilter":9729,
			"minFilter":9987
		}
	],
	"buffers":[
		{
			"byteLength":45339560,
			"uri":"model_zeroed.bin"
		}
	]
}
